<mxfile host="app.diagrams.net" modified="2021-11-04T11:58:50.277Z" agent="5.0 (Windows NT 10.0; Win64; x64) AppleWebKit/537.36 (KHTML, like Gecko) Chrome/95.0.4638.69 Safari/537.36" etag="hdQCQqLwCeFj3EwOwAH2" version="15.6.8" type="github">
  <diagram id="VBPDcZtL7kC2B4WqYLaT" name="Page-1">
    <mxGraphModel dx="1673" dy="934" grid="1" gridSize="10" guides="1" tooltips="1" connect="1" arrows="1" fold="1" page="1" pageScale="1" pageWidth="827" pageHeight="1169" math="0" shadow="0">
      <root>
        <mxCell id="0" />
        <mxCell id="1" parent="0" />
        <mxCell id="nzMRGq0ReJ-ALn44FkT1-1" value="Обучающиеся&amp;nbsp;&lt;br&gt;" style="shape=umlActor;verticalLabelPosition=bottom;verticalAlign=top;html=1;outlineConnect=0;" parent="1" vertex="1">
          <mxGeometry x="60" y="355" width="30" height="60" as="geometry" />
        </mxCell>
        <mxCell id="ilu05BHYecu2uqZZ9REy-3" style="rounded=0;orthogonalLoop=1;jettySize=auto;html=1;exitX=0.5;exitY=0.5;exitDx=0;exitDy=0;exitPerimeter=0;entryX=1;entryY=0.5;entryDx=0;entryDy=0;endArrow=none;endFill=0;" parent="1" source="nzMRGq0ReJ-ALn44FkT1-2" target="ilu05BHYecu2uqZZ9REy-1" edge="1">
          <mxGeometry relative="1" as="geometry" />
        </mxCell>
        <mxCell id="ilu05BHYecu2uqZZ9REy-12" style="rounded=0;orthogonalLoop=1;jettySize=auto;html=1;exitX=0.5;exitY=0.5;exitDx=0;exitDy=0;exitPerimeter=0;entryX=1;entryY=0.5;entryDx=0;entryDy=0;endArrow=none;endFill=0;" parent="1" source="nzMRGq0ReJ-ALn44FkT1-2" target="RbfdTBoapyP24dZfY5AA-59" edge="1">
          <mxGeometry relative="1" as="geometry" />
        </mxCell>
        <mxCell id="ilu05BHYecu2uqZZ9REy-13" style="edgeStyle=none;rounded=0;orthogonalLoop=1;jettySize=auto;html=1;exitX=0.5;exitY=0.5;exitDx=0;exitDy=0;exitPerimeter=0;entryX=1;entryY=0.5;entryDx=0;entryDy=0;endArrow=none;endFill=0;" parent="1" source="nzMRGq0ReJ-ALn44FkT1-2" target="RbfdTBoapyP24dZfY5AA-58" edge="1">
          <mxGeometry relative="1" as="geometry" />
        </mxCell>
        <mxCell id="nzMRGq0ReJ-ALn44FkT1-2" value="Преподаватели&lt;br&gt;" style="shape=umlActor;verticalLabelPosition=bottom;verticalAlign=top;html=1;outlineConnect=0;" parent="1" vertex="1">
          <mxGeometry x="1226" y="810" width="30" height="60" as="geometry" />
        </mxCell>
        <mxCell id="RbfdTBoapyP24dZfY5AA-81" style="rounded=0;orthogonalLoop=1;jettySize=auto;html=1;exitX=0.5;exitY=0.5;exitDx=0;exitDy=0;exitPerimeter=0;entryX=0;entryY=0.5;entryDx=0;entryDy=0;endArrow=none;endFill=0;" parent="1" source="nzMRGq0ReJ-ALn44FkT1-3" target="RbfdTBoapyP24dZfY5AA-66" edge="1">
          <mxGeometry relative="1" as="geometry" />
        </mxCell>
        <mxCell id="RbfdTBoapyP24dZfY5AA-84" style="rounded=0;orthogonalLoop=1;jettySize=auto;html=1;exitX=0.5;exitY=0.5;exitDx=0;exitDy=0;exitPerimeter=0;entryX=0;entryY=0.5;entryDx=0;entryDy=0;endArrow=none;endFill=0;" parent="1" source="nzMRGq0ReJ-ALn44FkT1-3" target="RbfdTBoapyP24dZfY5AA-68" edge="1">
          <mxGeometry relative="1" as="geometry" />
        </mxCell>
        <mxCell id="ilu05BHYecu2uqZZ9REy-9" style="rounded=0;orthogonalLoop=1;jettySize=auto;html=1;exitX=0.5;exitY=0.5;exitDx=0;exitDy=0;exitPerimeter=0;entryX=0;entryY=0.5;entryDx=0;entryDy=0;endArrow=none;endFill=0;" parent="1" source="nzMRGq0ReJ-ALn44FkT1-3" target="RbfdTBoapyP24dZfY5AA-86" edge="1">
          <mxGeometry relative="1" as="geometry" />
        </mxCell>
        <mxCell id="nzMRGq0ReJ-ALn44FkT1-3" value="Завуч&lt;br&gt;" style="shape=umlActor;verticalLabelPosition=bottom;verticalAlign=top;html=1;outlineConnect=0;" parent="1" vertex="1">
          <mxGeometry x="100" y="850" width="30" height="60" as="geometry" />
        </mxCell>
        <mxCell id="RbfdTBoapyP24dZfY5AA-71" style="rounded=0;orthogonalLoop=1;jettySize=auto;html=1;exitX=0.5;exitY=0.5;exitDx=0;exitDy=0;exitPerimeter=0;endArrow=none;endFill=0;" parent="1" source="nzMRGq0ReJ-ALn44FkT1-4" target="RbfdTBoapyP24dZfY5AA-49" edge="1">
          <mxGeometry relative="1" as="geometry">
            <mxPoint x="1085" y="305" as="targetPoint" />
          </mxGeometry>
        </mxCell>
        <mxCell id="RbfdTBoapyP24dZfY5AA-77" style="rounded=0;orthogonalLoop=1;jettySize=auto;html=1;exitX=0.5;exitY=0.5;exitDx=0;exitDy=0;exitPerimeter=0;endArrow=none;endFill=0;" parent="1" source="nzMRGq0ReJ-ALn44FkT1-4" target="RbfdTBoapyP24dZfY5AA-6" edge="1">
          <mxGeometry relative="1" as="geometry" />
        </mxCell>
        <mxCell id="nzMRGq0ReJ-ALn44FkT1-4" value="Технические работники" style="shape=umlActor;verticalLabelPosition=bottom;verticalAlign=top;html=1;outlineConnect=0;" parent="1" vertex="1">
          <mxGeometry x="1070" y="250" width="30" height="60" as="geometry" />
        </mxCell>
        <mxCell id="RbfdTBoapyP24dZfY5AA-24" style="edgeStyle=orthogonalEdgeStyle;rounded=0;orthogonalLoop=1;jettySize=auto;html=1;exitX=1;exitY=0.5;exitDx=0;exitDy=0;entryX=0;entryY=0.5;entryDx=0;entryDy=0;" parent="1" source="RbfdTBoapyP24dZfY5AA-1" target="RbfdTBoapyP24dZfY5AA-3" edge="1">
          <mxGeometry relative="1" as="geometry" />
        </mxCell>
        <mxCell id="RbfdTBoapyP24dZfY5AA-1" value="Вход на сайт" style="html=1;dashed=0;whitespace=wrap;" parent="1" vertex="1">
          <mxGeometry x="180" y="360" width="100" height="50" as="geometry" />
        </mxCell>
        <mxCell id="RbfdTBoapyP24dZfY5AA-25" style="edgeStyle=orthogonalEdgeStyle;rounded=0;orthogonalLoop=1;jettySize=auto;html=1;exitX=0.5;exitY=0;exitDx=0;exitDy=0;entryX=0;entryY=0.5;entryDx=0;entryDy=0;" parent="1" source="RbfdTBoapyP24dZfY5AA-3" target="RbfdTBoapyP24dZfY5AA-4" edge="1">
          <mxGeometry relative="1" as="geometry" />
        </mxCell>
        <mxCell id="RbfdTBoapyP24dZfY5AA-26" value="Нет" style="edgeLabel;html=1;align=center;verticalAlign=middle;resizable=0;points=[];" parent="RbfdTBoapyP24dZfY5AA-25" vertex="1" connectable="0">
          <mxGeometry x="-0.1259" relative="1" as="geometry">
            <mxPoint as="offset" />
          </mxGeometry>
        </mxCell>
        <mxCell id="RbfdTBoapyP24dZfY5AA-27" style="edgeStyle=orthogonalEdgeStyle;rounded=0;orthogonalLoop=1;jettySize=auto;html=1;exitX=0.5;exitY=1;exitDx=0;exitDy=0;entryX=0;entryY=0.5;entryDx=0;entryDy=0;" parent="1" source="RbfdTBoapyP24dZfY5AA-3" target="RbfdTBoapyP24dZfY5AA-5" edge="1">
          <mxGeometry relative="1" as="geometry" />
        </mxCell>
        <mxCell id="RbfdTBoapyP24dZfY5AA-28" value="Да" style="edgeLabel;html=1;align=center;verticalAlign=middle;resizable=0;points=[];" parent="RbfdTBoapyP24dZfY5AA-27" vertex="1" connectable="0">
          <mxGeometry x="-0.056" y="-1" relative="1" as="geometry">
            <mxPoint as="offset" />
          </mxGeometry>
        </mxCell>
        <mxCell id="RbfdTBoapyP24dZfY5AA-3" value="новый&lt;br&gt;ученик" style="shape=rhombus;html=1;dashed=0;whitespace=wrap;perimeter=rhombusPerimeter;" parent="1" vertex="1">
          <mxGeometry x="370" y="360" width="90" height="50" as="geometry" />
        </mxCell>
        <mxCell id="RbfdTBoapyP24dZfY5AA-72" value="" style="edgeStyle=orthogonalEdgeStyle;rounded=0;orthogonalLoop=1;jettySize=auto;html=1;endArrow=classic;endFill=1;" parent="1" source="RbfdTBoapyP24dZfY5AA-4" target="RbfdTBoapyP24dZfY5AA-7" edge="1">
          <mxGeometry relative="1" as="geometry" />
        </mxCell>
        <mxCell id="RbfdTBoapyP24dZfY5AA-4" value="Оценка работы&lt;br&gt;сервиса" style="html=1;dashed=0;whitespace=wrap;" parent="1" vertex="1">
          <mxGeometry x="520" y="305" width="100" height="50" as="geometry" />
        </mxCell>
        <mxCell id="RbfdTBoapyP24dZfY5AA-73" style="edgeStyle=orthogonalEdgeStyle;rounded=0;orthogonalLoop=1;jettySize=auto;html=1;exitX=0.5;exitY=1;exitDx=0;exitDy=0;entryX=0;entryY=0.5;entryDx=0;entryDy=0;endArrow=classic;endFill=1;" parent="1" source="RbfdTBoapyP24dZfY5AA-5" target="RbfdTBoapyP24dZfY5AA-18" edge="1">
          <mxGeometry relative="1" as="geometry" />
        </mxCell>
        <mxCell id="RbfdTBoapyP24dZfY5AA-5" value="Подача заявки" style="html=1;dashed=0;whitespace=wrap;" parent="1" vertex="1">
          <mxGeometry x="520" y="405" width="100" height="50" as="geometry" />
        </mxCell>
        <mxCell id="RbfdTBoapyP24dZfY5AA-76" value="" style="edgeStyle=orthogonalEdgeStyle;rounded=0;orthogonalLoop=1;jettySize=auto;html=1;endArrow=classic;endFill=1;" parent="1" source="RbfdTBoapyP24dZfY5AA-6" target="RbfdTBoapyP24dZfY5AA-75" edge="1">
          <mxGeometry relative="1" as="geometry" />
        </mxCell>
        <mxCell id="RbfdTBoapyP24dZfY5AA-6" value="Обработка&amp;nbsp;&lt;br&gt;заявок" style="html=1;dashed=0;whitespace=wrap;" parent="1" vertex="1">
          <mxGeometry x="700" y="405" width="100" height="50" as="geometry" />
        </mxCell>
        <mxCell id="RbfdTBoapyP24dZfY5AA-70" style="edgeStyle=orthogonalEdgeStyle;rounded=0;orthogonalLoop=1;jettySize=auto;html=1;exitX=0.5;exitY=0;exitDx=0;exitDy=0;entryX=0.5;entryY=1;entryDx=0;entryDy=0;endArrow=classic;endFill=1;" parent="1" source="RbfdTBoapyP24dZfY5AA-7" target="RbfdTBoapyP24dZfY5AA-53" edge="1">
          <mxGeometry relative="1" as="geometry" />
        </mxCell>
        <mxCell id="RbfdTBoapyP24dZfY5AA-7" value="Доработка сайта&lt;br&gt;на основе&lt;br&gt;отзывов" style="html=1;dashed=0;whitespace=wrap;" parent="1" vertex="1">
          <mxGeometry x="700" y="305" width="100" height="50" as="geometry" />
        </mxCell>
        <mxCell id="RbfdTBoapyP24dZfY5AA-11" value="" style="endArrow=none;html=1;entryX=0;entryY=0.5;entryDx=0;entryDy=0;exitX=0.5;exitY=0.5;exitDx=0;exitDy=0;exitPerimeter=0;" parent="1" source="nzMRGq0ReJ-ALn44FkT1-1" target="RbfdTBoapyP24dZfY5AA-1" edge="1">
          <mxGeometry width="50" height="50" relative="1" as="geometry">
            <mxPoint x="150" y="415" as="sourcePoint" />
            <mxPoint x="200" y="365" as="targetPoint" />
          </mxGeometry>
        </mxCell>
        <mxCell id="RbfdTBoapyP24dZfY5AA-74" style="edgeStyle=orthogonalEdgeStyle;rounded=0;orthogonalLoop=1;jettySize=auto;html=1;exitX=1;exitY=0.5;exitDx=0;exitDy=0;entryX=0.5;entryY=1;entryDx=0;entryDy=0;endArrow=classic;endFill=1;" parent="1" source="RbfdTBoapyP24dZfY5AA-18" target="RbfdTBoapyP24dZfY5AA-6" edge="1">
          <mxGeometry relative="1" as="geometry" />
        </mxCell>
        <mxCell id="RbfdTBoapyP24dZfY5AA-18" value="Журнал заявок" style="html=1;dashed=0;whitespace=wrap;shape=partialRectangle;right=0;" parent="1" vertex="1">
          <mxGeometry x="610" y="520" width="100" height="30" as="geometry" />
        </mxCell>
        <mxCell id="uLcASa-JJuFDJaj8x0JA-6" style="edgeStyle=none;rounded=0;orthogonalLoop=1;jettySize=auto;html=1;endArrow=classic;endFill=1;" parent="1" source="RbfdTBoapyP24dZfY5AA-20" target="RbfdTBoapyP24dZfY5AA-58" edge="1">
          <mxGeometry relative="1" as="geometry" />
        </mxCell>
        <mxCell id="9S2K1S1zKxr8PzvTSk9J-4" style="edgeStyle=orthogonalEdgeStyle;rounded=0;orthogonalLoop=1;jettySize=auto;html=1;" parent="1" source="RbfdTBoapyP24dZfY5AA-20" target="RbfdTBoapyP24dZfY5AA-68" edge="1">
          <mxGeometry relative="1" as="geometry">
            <Array as="points">
              <mxPoint x="760" y="705" />
            </Array>
          </mxGeometry>
        </mxCell>
        <mxCell id="9S2K1S1zKxr8PzvTSk9J-7" style="edgeStyle=orthogonalEdgeStyle;rounded=0;orthogonalLoop=1;jettySize=auto;html=1;" parent="1" source="RbfdTBoapyP24dZfY5AA-20" target="RbfdTBoapyP24dZfY5AA-59" edge="1">
          <mxGeometry relative="1" as="geometry">
            <Array as="points">
              <mxPoint x="760" y="780" />
              <mxPoint x="1045" y="780" />
            </Array>
          </mxGeometry>
        </mxCell>
        <mxCell id="RbfdTBoapyP24dZfY5AA-20" value="Курсы" style="html=1;dashed=0;whitespace=wrap;shape=partialRectangle;right=0;" parent="1" vertex="1">
          <mxGeometry x="710" y="730" width="100" height="30" as="geometry" />
        </mxCell>
        <mxCell id="RbfdTBoapyP24dZfY5AA-49" value="Отладка системы&lt;br&gt;по обработке&lt;br&gt;заявок" style="whiteSpace=wrap;html=1;dashed=0;" parent="1" vertex="1">
          <mxGeometry x="1027.5" y="170" width="115" height="50" as="geometry" />
        </mxCell>
        <mxCell id="RbfdTBoapyP24dZfY5AA-55" style="edgeStyle=orthogonalEdgeStyle;rounded=0;orthogonalLoop=1;jettySize=auto;html=1;exitX=1;exitY=0.5;exitDx=0;exitDy=0;entryX=0;entryY=0.5;entryDx=0;entryDy=0;endArrow=classic;endFill=1;" parent="1" target="RbfdTBoapyP24dZfY5AA-49" edge="1">
          <mxGeometry relative="1" as="geometry">
            <mxPoint x="800" y="195" as="sourcePoint" />
          </mxGeometry>
        </mxCell>
        <mxCell id="RbfdTBoapyP24dZfY5AA-53" value="Журнал отзывов" style="html=1;dashed=0;whitespace=wrap;shape=partialRectangle;right=0;" parent="1" vertex="1">
          <mxGeometry x="700" y="180" width="100" height="30" as="geometry" />
        </mxCell>
        <mxCell id="RbfdTBoapyP24dZfY5AA-58" value="Обучение&lt;br&gt;учащихся" style="html=1;dashed=0;whitespace=wrap;" parent="1" vertex="1">
          <mxGeometry x="1000" y="725" width="90" height="40" as="geometry" />
        </mxCell>
        <mxCell id="9S2K1S1zKxr8PzvTSk9J-1" style="edgeStyle=orthogonalEdgeStyle;rounded=0;orthogonalLoop=1;jettySize=auto;html=1;" parent="1" source="RbfdTBoapyP24dZfY5AA-59" target="9S2K1S1zKxr8PzvTSk9J-6" edge="1">
          <mxGeometry relative="1" as="geometry" />
        </mxCell>
        <mxCell id="RbfdTBoapyP24dZfY5AA-59" value="Предоставление&lt;br&gt;доп материала" style="html=1;dashed=0;whitespace=wrap;" parent="1" vertex="1">
          <mxGeometry x="995" y="800" width="100" height="40" as="geometry" />
        </mxCell>
        <mxCell id="uLcASa-JJuFDJaj8x0JA-3" style="edgeStyle=none;rounded=0;orthogonalLoop=1;jettySize=auto;html=1;endArrow=classic;endFill=1;" parent="1" source="RbfdTBoapyP24dZfY5AA-66" target="uLcASa-JJuFDJaj8x0JA-1" edge="1">
          <mxGeometry relative="1" as="geometry" />
        </mxCell>
        <mxCell id="3UsK5SWwI_iqP-hFdetK-5" style="edgeStyle=none;rounded=0;orthogonalLoop=1;jettySize=auto;html=1;exitX=1;exitY=0.5;exitDx=0;exitDy=0;entryX=0;entryY=0.5;entryDx=0;entryDy=0;" parent="1" source="RbfdTBoapyP24dZfY5AA-66" target="3UsK5SWwI_iqP-hFdetK-1" edge="1">
          <mxGeometry relative="1" as="geometry" />
        </mxCell>
        <mxCell id="RbfdTBoapyP24dZfY5AA-66" value="Составление&lt;br&gt;учебного&lt;br&gt;плана" style="html=1;dashed=0;whitespace=wrap;" parent="1" vertex="1">
          <mxGeometry x="190" y="840" width="100" height="50" as="geometry" />
        </mxCell>
        <mxCell id="RbfdTBoapyP24dZfY5AA-80" style="edgeStyle=orthogonalEdgeStyle;rounded=0;orthogonalLoop=1;jettySize=auto;html=1;exitX=0.5;exitY=0;exitDx=0;exitDy=0;entryX=0;entryY=0.5;entryDx=0;entryDy=0;endArrow=classic;endFill=1;" parent="1" source="RbfdTBoapyP24dZfY5AA-67" target="RbfdTBoapyP24dZfY5AA-20" edge="1">
          <mxGeometry relative="1" as="geometry" />
        </mxCell>
        <mxCell id="RbfdTBoapyP24dZfY5AA-67" value="Создание&amp;nbsp;&lt;br&gt;курса" style="html=1;dashed=0;whitespace=wrap;" parent="1" vertex="1">
          <mxGeometry x="530" y="840" width="100" height="50" as="geometry" />
        </mxCell>
        <mxCell id="9S2K1S1zKxr8PzvTSk9J-5" style="edgeStyle=orthogonalEdgeStyle;rounded=0;orthogonalLoop=1;jettySize=auto;html=1;" parent="1" source="RbfdTBoapyP24dZfY5AA-68" target="9S2K1S1zKxr8PzvTSk9J-2" edge="1">
          <mxGeometry relative="1" as="geometry">
            <Array as="points">
              <mxPoint x="470" y="645" />
            </Array>
          </mxGeometry>
        </mxCell>
        <mxCell id="RbfdTBoapyP24dZfY5AA-68" value="Добавление&lt;br&gt;студентов&lt;br&gt;на курс" style="html=1;dashed=0;whitespace=wrap;" parent="1" vertex="1">
          <mxGeometry x="390" y="680" width="100" height="50" as="geometry" />
        </mxCell>
        <mxCell id="RbfdTBoapyP24dZfY5AA-79" style="edgeStyle=orthogonalEdgeStyle;rounded=0;orthogonalLoop=1;jettySize=auto;html=1;exitX=0.5;exitY=1;exitDx=0;exitDy=0;entryX=0.5;entryY=0;entryDx=0;entryDy=0;endArrow=classic;endFill=1;" parent="1" source="RbfdTBoapyP24dZfY5AA-75" target="RbfdTBoapyP24dZfY5AA-78" edge="1">
          <mxGeometry relative="1" as="geometry" />
        </mxCell>
        <mxCell id="RbfdTBoapyP24dZfY5AA-75" value="Внесение в базу&lt;br&gt;новых учеников" style="html=1;dashed=0;whitespace=wrap;" parent="1" vertex="1">
          <mxGeometry x="850" y="405" width="100" height="50" as="geometry" />
        </mxCell>
        <mxCell id="RbfdTBoapyP24dZfY5AA-83" style="edgeStyle=orthogonalEdgeStyle;rounded=0;orthogonalLoop=1;jettySize=auto;html=1;exitX=0;exitY=0.5;exitDx=0;exitDy=0;entryX=0.5;entryY=0;entryDx=0;entryDy=0;endArrow=classic;endFill=1;" parent="1" source="RbfdTBoapyP24dZfY5AA-78" target="RbfdTBoapyP24dZfY5AA-68" edge="1">
          <mxGeometry relative="1" as="geometry" />
        </mxCell>
        <mxCell id="RbfdTBoapyP24dZfY5AA-78" value="База учеников" style="html=1;dashed=0;whitespace=wrap;shape=partialRectangle;right=0;" parent="1" vertex="1">
          <mxGeometry x="850" y="585" width="100" height="30" as="geometry" />
        </mxCell>
        <mxCell id="3UsK5SWwI_iqP-hFdetK-24" style="edgeStyle=none;rounded=0;orthogonalLoop=1;jettySize=auto;html=1;exitX=1;exitY=0;exitDx=0;exitDy=0;entryX=0;entryY=0.5;entryDx=0;entryDy=0;" parent="1" source="RbfdTBoapyP24dZfY5AA-86" target="3UsK5SWwI_iqP-hFdetK-21" edge="1">
          <mxGeometry relative="1" as="geometry" />
        </mxCell>
        <mxCell id="RbfdTBoapyP24dZfY5AA-86" value="Выбор&amp;nbsp;&lt;br&gt;преподавателя&lt;br&gt;для курса" style="rounded=0;whiteSpace=wrap;html=1;" parent="1" vertex="1">
          <mxGeometry x="230" y="1060" width="100" height="50" as="geometry" />
        </mxCell>
        <mxCell id="3UsK5SWwI_iqP-hFdetK-14" style="edgeStyle=none;rounded=0;orthogonalLoop=1;jettySize=auto;html=1;exitX=0;exitY=0.5;exitDx=0;exitDy=0;entryX=1;entryY=0.5;entryDx=0;entryDy=0;" parent="1" source="ilu05BHYecu2uqZZ9REy-1" target="ilu05BHYecu2uqZZ9REy-2" edge="1">
          <mxGeometry relative="1" as="geometry" />
        </mxCell>
        <mxCell id="ilu05BHYecu2uqZZ9REy-1" value="Распределение&lt;br&gt;по&amp;nbsp;&lt;br&gt;специальностям" style="rounded=0;whiteSpace=wrap;html=1;" parent="1" vertex="1">
          <mxGeometry x="955" y="990" width="110" height="50" as="geometry" />
        </mxCell>
        <mxCell id="3UsK5SWwI_iqP-hFdetK-23" style="edgeStyle=none;rounded=0;orthogonalLoop=1;jettySize=auto;html=1;exitX=0;exitY=0.5;exitDx=0;exitDy=0;entryX=1;entryY=0.5;entryDx=0;entryDy=0;" parent="1" source="ilu05BHYecu2uqZZ9REy-2" target="RbfdTBoapyP24dZfY5AA-86" edge="1">
          <mxGeometry relative="1" as="geometry" />
        </mxCell>
        <mxCell id="ilu05BHYecu2uqZZ9REy-2" value="Преподавательский&lt;br&gt;состав" style="html=1;dashed=0;whitespace=wrap;shape=partialRectangle;right=0;" parent="1" vertex="1">
          <mxGeometry x="640" y="1070" width="120" height="30" as="geometry" />
        </mxCell>
        <mxCell id="3UsK5SWwI_iqP-hFdetK-10" style="edgeStyle=none;rounded=0;orthogonalLoop=1;jettySize=auto;html=1;exitX=0.75;exitY=1;exitDx=0;exitDy=0;entryX=0.5;entryY=0;entryDx=0;entryDy=0;" parent="1" source="uLcASa-JJuFDJaj8x0JA-1" target="3UsK5SWwI_iqP-hFdetK-1" edge="1">
          <mxGeometry relative="1" as="geometry" />
        </mxCell>
        <mxCell id="uLcASa-JJuFDJaj8x0JA-1" value="Учебный план" style="html=1;dashed=0;whitespace=wrap;shape=partialRectangle;right=0;" parent="1" vertex="1">
          <mxGeometry x="314" y="780" width="100" height="30" as="geometry" />
        </mxCell>
        <mxCell id="3UsK5SWwI_iqP-hFdetK-8" style="edgeStyle=none;rounded=0;orthogonalLoop=1;jettySize=auto;html=1;exitX=1;exitY=0.5;exitDx=0;exitDy=0;entryX=0;entryY=0.5;entryDx=0;entryDy=0;" parent="1" source="3UsK5SWwI_iqP-hFdetK-1" target="RbfdTBoapyP24dZfY5AA-67" edge="1">
          <mxGeometry relative="1" as="geometry" />
        </mxCell>
        <mxCell id="3UsK5SWwI_iqP-hFdetK-20" style="edgeStyle=none;rounded=0;orthogonalLoop=1;jettySize=auto;html=1;exitX=0.5;exitY=1;exitDx=0;exitDy=0;entryX=0.5;entryY=0;entryDx=0;entryDy=0;" parent="1" source="3UsK5SWwI_iqP-hFdetK-1" target="3UsK5SWwI_iqP-hFdetK-2" edge="1">
          <mxGeometry relative="1" as="geometry" />
        </mxCell>
        <mxCell id="3UsK5SWwI_iqP-hFdetK-1" value="Составление&lt;br&gt;расписания&amp;nbsp;" style="rounded=0;whiteSpace=wrap;html=1;" parent="1" vertex="1">
          <mxGeometry x="340" y="835" width="120" height="60" as="geometry" />
        </mxCell>
        <mxCell id="3UsK5SWwI_iqP-hFdetK-3" style="rounded=0;orthogonalLoop=1;jettySize=auto;html=1;exitX=0.75;exitY=1;exitDx=0;exitDy=0;" parent="1" source="3UsK5SWwI_iqP-hFdetK-2" target="RbfdTBoapyP24dZfY5AA-67" edge="1">
          <mxGeometry relative="1" as="geometry" />
        </mxCell>
        <mxCell id="3UsK5SWwI_iqP-hFdetK-2" value="Расписание" style="html=1;dashed=0;whitespace=wrap;shape=partialRectangle;right=0;" parent="1" vertex="1">
          <mxGeometry x="400" y="940" width="100" height="30" as="geometry" />
        </mxCell>
        <mxCell id="3UsK5SWwI_iqP-hFdetK-22" style="edgeStyle=none;rounded=0;orthogonalLoop=1;jettySize=auto;html=1;exitX=0.5;exitY=0;exitDx=0;exitDy=0;entryX=0.5;entryY=1;entryDx=0;entryDy=0;" parent="1" source="3UsK5SWwI_iqP-hFdetK-21" target="3UsK5SWwI_iqP-hFdetK-2" edge="1">
          <mxGeometry relative="1" as="geometry" />
        </mxCell>
        <mxCell id="3UsK5SWwI_iqP-hFdetK-21" value="Обновление&lt;br&gt;расписания" style="html=1;dashed=0;whitespace=wrap;" parent="1" vertex="1">
          <mxGeometry x="400" y="1000" width="100" height="50" as="geometry" />
        </mxCell>
        <mxCell id="9S2K1S1zKxr8PzvTSk9J-2" value="Группа" style="html=1;dashed=0;whitespace=wrap;shape=partialRectangle;right=0;" parent="1" vertex="1">
          <mxGeometry x="610" y="630" width="100" height="30" as="geometry" />
        </mxCell>
        <mxCell id="9S2K1S1zKxr8PzvTSk9J-6" value="Материалы курса" style="html=1;dashed=0;whitespace=wrap;shape=partialRectangle;right=0;" parent="1" vertex="1">
          <mxGeometry x="710" y="805" width="100" height="30" as="geometry" />
        </mxCell>
      </root>
    </mxGraphModel>
  </diagram>
</mxfile>
